<svg id="Layer_1" data-name="Layer 1" xmlns="http://www.w3.org/2000/svg" viewBox="0 0 135.6 29.9"><defs><style>.cls-1{fill:#fff;}</style></defs><path class="cls-1" d="M12,10.9A6.13,6.13,0,0,0,7.7,9.4c-2.2,0-4.2.8-4.2,2.6S6,14.2,7.7,14.5c2.5.4,5.9.8,5.7,4.1-.1,3.1-3.3,3.9-5.7,3.9s-4.9-.9-6.1-2.8l1-.9a6.11,6.11,0,0,0,5.1,2.4c1.7,0,4.2-.4,4.3-2.6.1-2-2.2-2.4-4.5-2.8-2.7-.4-5.4-1-5.4-3.7S4.8,8.2,7.6,8.2a7.43,7.43,0,0,1,5.2,1.9l-.8.8Z" transform="translate(-0.8 -0.7)"/><path class="cls-1" d="M7.7,23.1C4.8,23.1,2.3,22,1.1,20l-.3-.5,2-1.7.4.6a5.48,5.48,0,0,0,4.6,2.1c1.1,0,3.6-.2,3.7-2,0-1.4-1.6-1.7-4-2.1-2.6-.4-5.9-1-5.9-4.4A4.36,4.36,0,0,1,2.7,9.1,6.77,6.77,0,0,1,7.6,7.4a8.07,8.07,0,0,1,5.7,2l.4.6L12,11.8l-.5-.4a5.53,5.53,0,0,0-4-1.3,5.19,5.19,0,0,0-3.1.9A1.28,1.28,0,0,0,4,12c0,1.2,1.6,1.6,3.5,1.9L8,14c2.4.4,6.1,1,5.9,4.7,0,3.3-3.2,4.4-6.2,4.4ZM2.5,19.8a6.76,6.76,0,0,0,5.2,2.1c1.2,0,5-.2,5.1-3.3.1-1.5-.7-2.2-2-2.7a2.7,2.7,0,0,1,2,2.7c-.1,2-1.9,3.3-5,3.3a8,8,0,0,1-5.3-2.1Zm5-11a5.81,5.81,0,0,0-4,1.3A2.73,2.73,0,0,0,2.7,12c0,1.5,1,2.2,2.6,2.6C4,14.2,2.8,13.5,2.8,12a2.36,2.36,0,0,1,.8-1.9c.8-.9,2.3-1.3,4.1-1.3a4.87,4.87,0,0,1,1.2.1,6.6,6.6,0,0,0-1.4-.1Z" transform="translate(-0.8 -0.7)"/><path class="cls-1" d="M17.9,15.3A7,7,0,0,1,25,8.1a7.29,7.29,0,0,1,7.3,7.8h-13A5.43,5.43,0,0,0,25,21c1.8,0,4-.7,5-2.1l1,.8a7.55,7.55,0,0,1-6,2.7A6.72,6.72,0,0,1,17.9,15.3Zm12.7-.5c-.3-3.3-1.9-5.6-5.7-5.3a5.75,5.75,0,0,0-5.7,5.3Z" transform="translate(-0.8 -0.7)"/><path class="cls-1" d="M24.9,23.1a7.49,7.49,0,0,1-7.7-7.8,7.54,7.54,0,0,1,7.7-7.8,7.93,7.93,0,0,1,5.7,2.3,8.71,8.71,0,0,1,2.3,6.1v.6H20a4.78,4.78,0,0,0,4.9,3.9,5.9,5.9,0,0,0,4.5-1.9l.4-.5,2,1.6-.4.5a8.08,8.08,0,0,1-6.5,3ZM24.7,8.8a6.38,6.38,0,0,0-6.3,6.5,6.17,6.17,0,0,0,6.4,6.5,7.41,7.41,0,0,0,4.7-1.6,7.52,7.52,0,0,1-4.7,1.5A6.16,6.16,0,0,1,18.5,16l-.1-.6.1-.6a6.56,6.56,0,0,1,6.2-6Zm6,3.2a10.71,10.71,0,0,1,.6,2.7v.6h.3A9,9,0,0,0,30.7,12ZM20,14.1h9.9c-.4-2.9-2.1-4.2-5-4.1A5.23,5.23,0,0,0,20,14.1Z" transform="translate(-0.8 -0.7)"/><path class="cls-1" d="M38.9,1.3V22.2H37.5V1.3Z" transform="translate(-0.8 -0.7)"/><path class="cls-1" d="M39.5,22.9H36.8V.7h2.7Zm-1.3-1.3h.1V1.3h-.1Z" transform="translate(-0.8 -0.7)"/><path class="cls-1" d="M45.7,1.3V22.2H44.3V1.3Z" transform="translate(-0.8 -0.7)"/><path class="cls-1" d="M46.3,22.9H43.7V.7h2.7Zm-1.4-1.3L45,1.3h-.1Z" transform="translate(-0.8 -0.7)"/><path class="cls-1" d="M50.9,15.3A7,7,0,0,1,58,8.1c3.9,0,7.4,2.4,6.9,7.8H52.3A5.43,5.43,0,0,0,58,21c1.8,0,4-.7,5-2.1l1,.8a7.55,7.55,0,0,1-6,2.7A6.77,6.77,0,0,1,50.9,15.3Zm12.7-.5c0-3.4-2.3-5.3-5.6-5.3a5.6,5.6,0,0,0-5.7,5.3Z" transform="translate(-0.8 -0.7)"/><path class="cls-1" d="M58,23.1a7.49,7.49,0,0,1-7.7-7.8A7.54,7.54,0,0,1,58,7.5a7.68,7.68,0,0,1,5.8,2.3A7.57,7.57,0,0,1,65.5,16l-.1.6H53.1A4.78,4.78,0,0,0,58,20.5a5.9,5.9,0,0,0,4.5-1.9l.4-.5,2,1.6-.4.5A8.31,8.31,0,0,1,58,23.1ZM54.1,10a6.54,6.54,0,0,0-2.6,5.3,6.17,6.17,0,0,0,6.4,6.5,7.41,7.41,0,0,0,4.7-1.6,7.52,7.52,0,0,1-4.7,1.5A6.16,6.16,0,0,1,51.6,16l-.1-.6.1-.6A7.47,7.47,0,0,1,54.1,10Zm10.2,5.3a6.61,6.61,0,0,0-1.4-4.7l-.1-.1a5.84,5.84,0,0,1,1.5,4.2ZM53.1,14.1H63c-.3-2.6-2.1-4.1-5-4.1A5,5,0,0,0,53.1,14.1Z" transform="translate(-0.8 -0.7)"/><path class="cls-1" d="M102.7,30V10.8H104v1.4a6.62,6.62,0,0,1,6-3.5c3.8.1,6.7,2.7,6.7,7.1,0,4.7-3.1,7.2-7.1,7.2a6.14,6.14,0,0,1-5.7-3.5V30Zm12.8-14c0-3.9-2.5-5.8-5.7-5.8a5.52,5.52,0,0,0-5.6,5.8,5.52,5.52,0,0,0,5.6,5.8C112.9,21.8,115.5,19.9,115.5,16Z" transform="translate(-0.8 -0.7)"/><path class="cls-1" d="M104.7,30.6h-2.6V10.2l2.6.1v.1A7.5,7.5,0,0,1,117.5,16c0,4.7-3.1,7.8-7.7,7.8a7.18,7.18,0,0,1-5.1-2.1v8.9Zm-1.3-1.3V17l.3.6a8.81,8.81,0,0,1-.2-1.7,6.8,6.8,0,0,1,.2-1.5l-.2.5V11.5h-.1V29.3Zm3.2-7.7a5.71,5.71,0,0,0,3.2.9c3.9,0,6.4-2.6,6.4-6.6,0-3.8-2.4-6.4-6.1-6.5a5.7,5.7,0,0,0-1.3.1c.3,0,.6-.1,1-.1,3.8,0,6.3,2.5,6.3,6.5s-2.5,6.5-6.3,6.5a5,5,0,0,1-3.2-.8Zm3.2-10.8a4.94,4.94,0,0,0-5,5.2,4.94,4.94,0,0,0,5,5.2c2.4,0,5-1.4,5-5.2C114.8,12.7,113,10.8,109.8,10.8Z" transform="translate(-0.8 -0.7)"/><path class="cls-1" d="M121.7,30V10.8H123v1.4a6.62,6.62,0,0,1,6-3.5c3.8.1,6.7,2.7,6.7,7.1,0,4.7-3.1,7.2-7.1,7.2a6.14,6.14,0,0,1-5.7-3.5V30Zm12.7-14c0-3.9-2.5-5.8-5.7-5.8a5.52,5.52,0,0,0-5.6,5.8,5.52,5.52,0,0,0,5.6,5.8C131.9,21.8,134.4,19.9,134.4,16Z" transform="translate(-0.8 -0.7)"/><path class="cls-1" d="M123.6,30.6H121V10.2l2.6.1v.1A7.5,7.5,0,0,1,136.4,16c0,4.7-3.1,7.8-7.7,7.8a7.18,7.18,0,0,1-5.1-2.1v8.9Zm-1.3-1.3V17l.3.6a8.81,8.81,0,0,1-.2-1.7,6.8,6.8,0,0,1,.2-1.5l-.2.5V11.5h-.1V29.3Zm3.3-7.7a5.71,5.71,0,0,0,3.2.9c3.9,0,6.4-2.6,6.4-6.6,0-3.8-2.4-6.4-6.1-6.5a5.7,5.7,0,0,0-1.3.1c.3,0,.6-.1,1-.1,3.8,0,6.3,2.5,6.3,6.5s-2.5,6.5-6.3,6.5a4.81,4.81,0,0,1-3.2-.8Zm3.1-10.8a4.94,4.94,0,0,0-5,5.2,4.94,4.94,0,0,0,5,5.2c2.4,0,5-1.4,5-5.2C133.8,12.7,131.9,10.8,128.7,10.8Z" transform="translate(-0.8 -0.7)"/><path class="cls-1" d="M96,23.6v-4a6.35,6.35,0,0,1-5.7,3.5c-3.9,0-7.1-2.5-7.1-7.2,0-4.5,3-7,6.7-7.1a6.62,6.62,0,0,1,6,3.5V10.9h1.3V23.7H96v-.1Zm-5.8-1.8A5.52,5.52,0,0,0,95.8,16a5.52,5.52,0,0,0-5.6-5.8c-3.1,0-5.7,1.9-5.7,5.8S87.1,21.8,90.2,21.8Z" transform="translate(-0.8 -0.7)"/><path class="cls-1" d="M95.3,21.7a7.18,7.18,0,0,1-5.1,2.1c-4.6,0-7.7-3.1-7.7-7.8a7.42,7.42,0,0,1,7.4-7.8,7.55,7.55,0,0,1,5.4,2.2v-.1l2.6-.1V23.8H95.3V21.7Zm1.4-10.2-.1,3.4-.2-.5a7.72,7.72,0,0,1,.2,1.5,9.85,9.85,0,0,1-.2,1.7l.3-.6V11.5Zm-6.5,11c-3.8,0-6.3-2.6-6.3-6.5s2.5-6.5,6.3-6.5a3.4,3.4,0,0,1,1,.1,5.28,5.28,0,0,0-1.3-.1c-3.7.1-6.1,2.7-6.1,6.5s2.5,6.5,6.4,6.5a6.6,6.6,0,0,0,3.2-.8A6.6,6.6,0,0,1,90.2,22.5Zm-5-6.5c0,3.9,2.6,5.2,5,5.2a4.94,4.94,0,0,0,5-5.2,4.94,4.94,0,0,0-5-5.2C87.1,10.8,85.2,12.7,85.2,16Z" transform="translate(-0.8 -0.7)"/><path class="cls-1" d="M70.4,14v8.6h1V14a4.26,4.26,0,0,1,7.5-3l.7-.8C76.8,7.1,70.4,8.4,70.4,14Z" transform="translate(-0.8 -0.7)"/><path class="cls-1" d="M72.3,23.5H69.6V14a5.91,5.91,0,0,1,3.8-5.8,6.49,6.49,0,0,1,6.9,1.5l.5.5-1.8,2-.6-.7a3.35,3.35,0,0,0-3.9-.9A3.41,3.41,0,0,0,72.3,14v9.5Z" transform="translate(-0.8 -0.7)"/></svg>